<?xml version="1.0" encoding="utf-8"?>
<!-- Generator: Adobe Illustrator 23.1.0, SVG Export Plug-In . SVG Version: 6.00 Build 0)  -->
<svg version="1.1" id="Layer_1" xmlns="http://www.w3.org/2000/svg" xmlns:xlink="http://www.w3.org/1999/xlink" x="0px" y="0px"
	 viewBox="0 0 716 212" style="enable-background:new 0 0 716 212;" xml:space="preserve">
<style type="text/css">
	.st0{opacity:0.75;}
	.st1{fill:#FFFFFF;}
	.st2{opacity:0.5;}
</style>
<g class="st0">
	<path class="st1" d="M182.55,96.07c6.03-28.24,1.71-52.12,1.47-53.35c-0.35-1.88-1.64-3.45-3.42-4.16
		c-1.39-0.56-2.94-0.53-4.29,0.05c-0.37,0.16-0.72,0.35-1.05,0.6c-1.11,0.8-24.42,17.7-39.97,46.44c4.23-1.06,8.66-1.64,13.21-1.64
		C161.39,84,173.22,88.52,182.55,96.07z"/>
</g>
<g class="st2">
	<path class="st1" d="M212.46,108.84c-0.82-1.91-2.63-3.21-4.69-3.38c-0.44-0.03-6.67-0.51-15.79,0.37
		c4.25,5.67,7.44,12.19,9.27,19.27c6.44-5.67,10.13-10.17,10.43-10.54C212.98,112.96,213.28,110.75,212.46,108.84z"/>
</g>
<g>
	<path class="st1" d="M242.26,80.04h64.13v20.57h-7.15c-5.83,0-11-0.11-14.63-0.33v59.62h-20.68v-59.62
		c-3.63,0.22-9.13,0.33-14.85,0.33h-6.82V80.04z"/>
	<path class="st1" d="M310.24,96.76h20.35l2.86,21.67c1.1,8.25,2.31,17.93,2.97,23.87h0.22c0.66-5.72,2.2-17.27,3.19-24.31
		l2.97-21.23h20.46l2.86,20.57c0.99,6.93,2.53,18.81,3.3,24.97h0.22c0.77-5.94,2.31-16.83,3.3-23.65l3.19-21.89h19.25l-14.52,63.14
		h-20.68l-4.62-24.53c-1.1-5.83-1.98-10.78-2.75-16.39h-0.22c-0.77,5.61-1.65,10.56-2.75,16.39l-4.62,24.53h-20.46L310.24,96.76z"/>
	<path class="st1" d="M452.14,153.74c-4.62,3.52-11.77,7.37-22.55,7.37c-10.34,0-18.15-3.52-23.43-9.35
		c-5.39-5.94-7.7-14.08-7.7-22.77c0-7.81,1.87-16.17,6.82-22.77c4.29-5.72,11.33-10.67,22.77-10.67c9.46,0,16.61,3.41,21.01,9.68
		c3.3,4.84,4.95,11,4.95,19.36c0,2.97-0.22,7.04-0.66,9.68c-4.73,0.55-10.78,0.88-16.5,0.88c-6.38,0-13.97-0.44-19.03-0.88
		c2.64,7.15,7.26,9.9,15.95,9.9c6.49,0,12.76-1.54,18.37-3.85V153.74z M418.48,117.22c-0.88,1.43-1.43,3.52-1.65,6.16
		c4.4-0.33,12.21-0.77,19.36-0.77c-0.33-2.09-0.99-3.74-1.76-4.95c-1.76-2.75-4.62-3.85-8.69-3.85
		C422.66,113.81,420.13,114.47,418.48,117.22z"/>
	<path class="st1" d="M514.51,153.74c-4.62,3.52-11.77,7.37-22.55,7.37c-10.34,0-18.15-3.52-23.43-9.35
		c-5.39-5.94-7.7-14.08-7.7-22.77c0-7.81,1.87-16.17,6.82-22.77c4.29-5.72,11.33-10.67,22.77-10.67c9.46,0,16.61,3.41,21.01,9.68
		c3.3,4.84,4.95,11,4.95,19.36c0,2.97-0.22,7.04-0.66,9.68c-4.73,0.55-10.78,0.88-16.5,0.88c-6.38,0-13.97-0.44-19.03-0.88
		c2.64,7.15,7.26,9.9,15.95,9.9c6.49,0,12.76-1.54,18.37-3.85V153.74z M480.85,117.22c-0.88,1.43-1.43,3.52-1.65,6.16
		c4.4-0.33,12.21-0.77,19.36-0.77c-0.33-2.09-0.99-3.74-1.76-4.95c-1.76-2.75-4.62-3.85-8.69-3.85
		C485.03,113.81,482.5,114.47,480.85,117.22z"/>
	<path class="st1" d="M563.24,156.93c-3.41,2.53-7.7,4.18-13.86,4.18c-13.09,0-20.02-8.03-20.02-21.78v-6.71
		c0-5.5,0-11.44,0.22-17.49c-3.19-0.11-6.05-0.33-8.58-0.55v-14.3c2.09-0.55,5.39-1.1,9.35-1.65c0.44-6.16,1.1-12.21,2.09-17.6
		h15.51c0.22,5.39,0.33,10.34,0.44,15.95c2.64-0.11,5.28-0.22,7.92-0.22h6.6l-1.1,19.14h-4.29c-2.86,0-5.94,0-8.91-0.11v18.48
		c0,6.49,3.08,9.24,9.02,9.24c2.09,0,4.18-0.33,5.61-0.77V156.93z"/>
	<path class="st1" d="M622.31,153.74c-4.62,3.52-11.77,7.37-22.55,7.37c-10.34,0-18.15-3.52-23.43-9.35
		c-5.39-5.94-7.7-14.08-7.7-22.77c0-7.81,1.87-16.17,6.82-22.77c4.29-5.72,11.33-10.67,22.77-10.67c9.46,0,16.61,3.41,21.01,9.68
		c3.3,4.84,4.95,11,4.95,19.36c0,2.97-0.22,7.04-0.66,9.68c-4.73,0.55-10.78,0.88-16.5,0.88c-6.38,0-13.97-0.44-19.03-0.88
		c2.64,7.15,7.26,9.9,15.95,9.9c6.49,0,12.76-1.54,18.37-3.85V153.74z M588.65,117.22c-0.88,1.43-1.43,3.52-1.65,6.16
		c4.4-0.33,12.21-0.77,19.36-0.77c-0.33-2.09-0.99-3.74-1.76-4.95c-1.76-2.75-4.62-3.85-8.69-3.85
		C592.83,113.81,590.3,114.47,588.65,117.22z"/>
	<path class="st1" d="M652.99,109.08c4.07-8.14,8.03-13.53,14.74-13.53c3.52,0,6.27,1.54,7.81,3.41l-2.86,20.46
		c-4.07-1.32-6.71-1.87-10.45-1.87c-3.63,0-6.6,0.55-8.36,1.21c0.22,2.86,0.33,5.83,0.33,8.91v32.23h-19.58v-31.46
		c0-9.57-0.55-21.56-1.21-31.24l17.16-0.77c0.88,4.18,1.65,8.36,2.2,12.65H652.99z"/>
</g>
<path class="st1" d="M201.24,125.11c-1.83-7.08-5.02-13.6-9.27-19.27c-2.73-3.64-5.9-6.92-9.43-9.77
	C173.22,88.52,161.39,84,148.5,84c-4.56,0-8.98,0.57-13.21,1.64c-0.39,0.1-0.78,0.21-1.17,0.31c-0.05-0.13-0.11-0.25-0.16-0.38
	c-16.36-38.24-48.74-60.53-50.11-61.46c-1.58-1.07-3.59-1.27-5.35-0.52c-1.75,0.75-3.01,2.35-3.32,4.23
	c-0.27,1.63-6.5,40.45,9.86,78.69c0.2,0.47,0.41,0.94,0.61,1.41c-32.12-9.17-61.3-3.81-62.68-3.56c-0.4,0.08-0.79,0.19-1.16,0.35
	c-1.35,0.58-2.44,1.68-3,3.07c-0.71,1.78-0.46,3.79,0.65,5.35c0.83,1.16,19.12,26.29,50.15,41.62
	c-13.06,8.99-20.77,18.4-21.16,18.88c-1.95,2.41-1.58,5.93,0.83,7.88c0.87,0.71,1.94,1.14,3.06,1.23
	c0.97,0.08,23.93,1.84,47.34-8.18c1.89-0.81,3.67-1.61,5.35-2.4c0.07,0.09,0.14,0.18,0.22,0.28c9.71,12.77,24.85,21.11,41.94,21.52
	c0.44,0.01,0.88,0.03,1.32,0.03c30.1,0,54.5-24.62,54.5-55C203,134.2,202.39,129.55,201.24,125.11z M176.29,118.93
	c4.19,0,7.58,3.39,7.58,7.58s-3.39,7.58-7.58,7.58c-4.19,0-7.58-3.39-7.58-7.58S172.11,118.93,176.29,118.93z M143.71,118.93
	c4.19,0,7.58,3.39,7.58,7.58s-3.39,7.58-7.58,7.58c-4.19,0-7.58-3.39-7.58-7.58S139.52,118.93,143.71,118.93z M184.64,170.33
	c-0.3,0.3-0.7,0.46-1.11,0.46c-0.11,0-0.23-0.01-0.34-0.04c-0.38-0.08-8.49-1.92-15.74-7.82c0,0.14,0,0.29,0,0.43
	c0,11.65-5.88,20.95-6.13,21.34c-0.29,0.45-0.79,0.72-1.32,0.72c-0.53,0-1.03-0.27-1.32-0.72c-0.25-0.39-6.13-9.7-6.13-21.34
	c0-0.14,0-0.29,0-0.43c-7.26,5.9-15.36,7.74-15.74,7.82c-0.11,0.03-0.23,0.04-0.34,0.04c-0.41,0-0.81-0.16-1.11-0.46
	c-0.38-0.38-0.54-0.93-0.42-1.45c0.09-0.39,2.03-8.87,8.33-16.24c-4.35-0.87-7.37-2.45-7.53-2.53c-0.51-0.27-0.84-0.8-0.84-1.39
	c0-0.58,0.32-1.11,0.83-1.39c0.24-0.13,5.96-3.11,13.09-3.11c0.6,0,1.17,0.01,1.72,0.03c-1.11-2.18-1.62-3.76-1.65-3.85
	c-0.18-0.56-0.03-1.17,0.38-1.58c0.41-0.41,4.82-1.15,9.16-0.95l3.14,0c4.97-0.1,8.74,0.54,9.16,0.95c0.41,0.41,0.56,1.02,0.38,1.58
	c-0.03,0.09-0.53,1.67-1.65,3.85c0.54-0.02,1.11-0.03,1.72-0.03c7.13,0,12.85,2.98,13.09,3.11c0.28,0.15,0.51,0.38,0.65,0.65
	c0.4,0.77,0.11,1.72-0.65,2.12c-0.15,0.08-3.18,1.66-7.53,2.53c6.3,7.36,8.24,15.85,8.33,16.24
	C185.18,169.4,185.02,169.95,184.64,170.33z"/>
</svg>
