<svg xmlns="http://www.w3.org/2000/svg" width="29.571" height="23" viewBox="0 0 29.571 23">
  <path id="Path_26" data-name="Path 26" d="M21.357,40.214c0-4.538-4.78-8.214-10.679-8.214S0,35.676,0,40.214a6.965,6.965,0,0,0,1.951,4.723,11.556,11.556,0,0,1-1.838,2.8.408.408,0,0,0-.077.447.4.4,0,0,0,.375.246,9.04,9.04,0,0,0,4.554-1.283,13.063,13.063,0,0,0,5.714,1.283C16.577,48.429,21.357,44.753,21.357,40.214Zm6.263,11.295a6.955,6.955,0,0,0,1.951-4.723c0-3.435-2.747-6.376-6.638-7.6A7.629,7.629,0,0,1,23,40.214c0,5.437-5.529,9.857-12.321,9.857a15.392,15.392,0,0,1-1.627-.1C10.668,52.926,14.467,55,18.893,55a12.992,12.992,0,0,0,5.714-1.283A9.04,9.04,0,0,0,29.161,55a.4.4,0,0,0,.375-.246.411.411,0,0,0-.077-.447A11.433,11.433,0,0,1,27.621,51.509Z" transform="translate(0 -32)" fill="#fff"/>
</svg>
