<svg xmlns="http://www.w3.org/2000/svg" width="13.984" height="15.982" viewBox="0 0 13.984 15.982">
  <path id="Path_18" data-name="Path 18" d="M10.1,1.6A18.647,18.647,0,0,0,8.345,3.47,24.219,24.219,0,0,0,5.244,0C2.177,2.846,0,6.554,0,8.79a7.094,7.094,0,0,0,6.992,7.192A7.094,7.094,0,0,0,13.984,8.79c0-1.663-1.623-5.092-3.884-7.192ZM9.492,12.232a4.2,4.2,0,0,1-2.411.754A3.844,3.844,0,0,1,3,9.076c0-1.205.759-2.267,2.272-4.081.216.249,3.085,3.912,3.085,3.912l1.83-2.088c.129.214.247.423.352.623a3.723,3.723,0,0,1-1.044,4.789Z" fill="rgba(0,0,0,0.51)"/>
</svg>
