<svg xmlns="http://www.w3.org/2000/svg" width="15.219" height="12.175" viewBox="0 0 15.219 12.175">
  <path id="Path_29" data-name="Path 29" d="M14.839,4.946H13.317V3.424a.382.382,0,0,0-.38-.38h-.761a.382.382,0,0,0-.38.38V4.946H10.273a.382.382,0,0,0-.38.38v.761a.382.382,0,0,0,.38.38h1.522V7.99a.382.382,0,0,0,.38.38h.761a.382.382,0,0,0,.38-.38V6.468h1.522a.382.382,0,0,0,.38-.38V5.327A.382.382,0,0,0,14.839,4.946ZM5.327,6.088A3.044,3.044,0,1,0,2.283,3.044,3.044,3.044,0,0,0,5.327,6.088Zm2.131.761h-.4a4.139,4.139,0,0,1-3.467,0H3.2a3.2,3.2,0,0,0-3.2,3.2v.989a1.142,1.142,0,0,0,1.141,1.141h8.37a1.142,1.142,0,0,0,1.141-1.141v-.989A3.2,3.2,0,0,0,7.457,6.849Z"/>
</svg>
