<svg xmlns="http://www.w3.org/2000/svg" width="24.044" height="18.863" viewBox="0 0 24.044 18.863">
  <path id="Path_28" data-name="Path 28" d="M22.224,69.6a.266.266,0,0,1,.429.207v9.029a2.122,2.122,0,0,1-2.124,2.119H2.124A2.122,2.122,0,0,1,0,78.834V69.81A.265.265,0,0,1,.429,69.6c.991.768,2.305,1.744,6.818,5.015.934.68,2.509,2.11,4.079,2.1,1.58.013,3.186-1.448,4.084-2.1C19.923,71.346,21.233,70.366,22.224,69.6Zm-10.9,5.7c1.026.018,2.5-1.289,3.248-1.828,5.871-4.252,6.318-4.622,7.672-5.682a1.056,1.056,0,0,0,.407-.834v-.839A2.122,2.122,0,0,0,20.529,64H2.124A2.122,2.122,0,0,0,0,66.119v.839a1.062,1.062,0,0,0,.407.834c1.354,1.055,1.8,1.43,7.672,5.682C8.822,74.013,10.3,75.32,11.326,75.3Z" transform="matrix(0.996, -0.087, 0.087, 0.996, -5.578, -61.782)" fill="#fff"/>
</svg>
