<svg xmlns="http://www.w3.org/2000/svg" width="13.596" height="13.596" viewBox="0 0 13.596 13.596">
  <path id="Path_14" data-name="Path 14" d="M4.234,0A.876.876,0,0,0,3.3.642L2.9,2.136a8.369,8.369,0,0,1,8.564,8.418l1.512-.419a.876.876,0,0,0,.627-.953A10.554,10.554,0,0,0,4.234,0ZM2.681,2.975.03,13.053a.43.43,0,0,0,.531.524l10.065-2.791a7.6,7.6,0,0,0-7.944-7.81Zm.733,8.069a.85.85,0,1,1,.85-.85A.85.85,0,0,1,3.414,11.044ZM4.689,7.008a.85.85,0,1,1,.85-.85A.85.85,0,0,1,4.689,7.008ZM7.45,9.77a.85.85,0,1,1,.85-.85A.85.85,0,0,1,7.45,9.77Z" transform="translate(-0.015 0.003)" fill="rgba(0,0,0,0.51)"/>
</svg>
