<svg xmlns="http://www.w3.org/2000/svg" width="23.333" height="23.333" viewBox="0 0 23.333 23.333">
  <path id="Path_27" data-name="Path 27" d="M11.667,8A11.667,11.667,0,1,0,23.333,19.667,11.666,11.666,0,0,0,11.667,8Zm3.871,16.823-.532.531a1.124,1.124,0,0,0-.29.5c-.071.266-.128.535-.224.794l-.818,2.2a9.4,9.4,0,0,1-2.006.221V27.787A3.522,3.522,0,0,0,10.6,25.376a1.505,1.505,0,0,1-.441-1.065V22.806a1.5,1.5,0,0,0-.774-1.316c-.676-.374-1.638-.9-2.3-1.228A6.781,6.781,0,0,1,5.6,19.239L5.564,19.2a5.4,5.4,0,0,1-.85-.976c-.441-.648-1.16-1.713-1.627-2.406A9.46,9.46,0,0,1,7.942,11.03l1.13.565a.753.753,0,0,0,1.09-.673V10.39a9.4,9.4,0,0,1,1.147-.114l1.331,1.331a.753.753,0,0,1,0,1.065l-.221.22-.486.486a.376.376,0,0,0,0,.532l.221.221a.376.376,0,0,1,0,.532l-.376.376a.377.377,0,0,1-.266.11h-.423a.376.376,0,0,0-.262.107l-.467.454a.377.377,0,0,0-.074.438l.733,1.467a.376.376,0,0,1-.336.545h-.265a.376.376,0,0,1-.247-.092l-.437-.379A.753.753,0,0,0,9,17.544l-1.466.489a.562.562,0,0,0-.073,1.036l.521.261a3.186,3.186,0,0,0,1.426.337c.495,0,1.063,1.284,1.505,1.505h3.14a1.506,1.506,0,0,1,1.065.441l.644.644a1.435,1.435,0,0,1,.42,1.015,2.189,2.189,0,0,1-.645,1.551Zm4.079-4.3a1.129,1.129,0,0,1-.666-.469l-.846-1.269a1.128,1.128,0,0,1,0-1.252l.922-1.382a1.128,1.128,0,0,1,.435-.383l.611-.305a9.114,9.114,0,0,1,.917,5.4Z" transform="translate(0 -8)" fill="#fff"/>
</svg>
