<svg xmlns="http://www.w3.org/2000/svg" width="17.839" height="17.839" viewBox="0 0 17.839 17.839">
  <path id="Path_15" data-name="Path 15" d="M8.919,8a8.919,8.919,0,1,0,8.919,8.919A8.918,8.918,0,0,0,8.919,8Zm0,3.453a3.165,3.165,0,1,1-3.165,3.165A3.165,3.165,0,0,1,8.919,11.453Zm0,12.372a6.892,6.892,0,0,1-5.269-2.453,4.01,4.01,0,0,1,3.543-2.151.88.88,0,0,1,.255.04,4.762,4.762,0,0,0,1.471.248,4.744,4.744,0,0,0,1.471-.248.88.88,0,0,1,.255-.04,4.01,4.01,0,0,1,3.543,2.151A6.892,6.892,0,0,1,8.919,23.825Z" transform="translate(0 -8)"/>
</svg>
