<svg xmlns="http://www.w3.org/2000/svg" width="14.373" height="13.436" viewBox="0 0 14.373 13.436">
  <path id="Path_16" data-name="Path 16" d="M7.186,8A6.963,6.963,0,0,0,0,14.718a6.963,6.963,0,0,0,7.186,6.718,6.963,6.963,0,0,0,7.186-6.718A6.963,6.963,0,0,0,7.186,8ZM4.4,13.6l-.832.777c-.429.4-1.1-.2-.655-.612l.832-.777-.832-.777c-.435-.406.223-1.019.655-.612l.832.777.832-.777c.435-.406,1.09.209.655.612l-.832.777.832.777c.44.412-.229,1.013-.655.612Zm2.782,5.456a1.738,1.738,0,1,1,0-3.467,1.738,1.738,0,1,1,0,3.467Zm4.268-5.291c.44.412-.229,1.013-.655.612L9.968,13.6l-.832.777c-.429.4-1.1-.2-.655-.612l.832-.777-.832-.777c-.435-.406.223-1.019.655-.612l.832.777.832-.777c.435-.406,1.09.209.655.612l-.832.777.832.777Z" transform="translate(0 -8)" fill="rgba(0,0,0,0.51)"/>
</svg>
