<svg xmlns="http://www.w3.org/2000/svg" width="15.76" height="15.76" viewBox="0 0 15.76 15.76">
  <path id="Path_20" data-name="Path 20" d="M3.2,6.9H.739A.739.739,0,0,0,0,7.634v7.388a.739.739,0,0,0,.739.739H3.2a.739.739,0,0,0,.739-.739V7.634A.739.739,0,0,0,3.2,6.9ZM1.97,14.529a.739.739,0,1,1,.739-.739A.739.739,0,0,1,1.97,14.529ZM11.82,2.507c0,1.306-.8,2.038-1.024,2.91h3.131A1.839,1.839,0,0,1,15.76,7.206a2.229,2.229,0,0,1-.6,1.514l0,0a2.571,2.571,0,0,1-.287,2.446,2.434,2.434,0,0,1-.5,2.3,1.634,1.634,0,0,1-.189,1.374c-.628.9-2.185.915-3.5.915h-.088a8.837,8.837,0,0,1-3.68-.977,4.844,4.844,0,0,0-1.621-.5.369.369,0,0,1-.363-.369V7.336a.369.369,0,0,1,.11-.262c1.219-1.2,1.744-2.481,2.743-3.482a3.728,3.728,0,0,0,.782-1.813C8.7,1.21,8.983,0,9.6,0,10.343,0,11.82.246,11.82,2.507Z" fill="rgba(0,0,0,0.51)"/>
</svg>
